<svg width="16.000000" height="16.000000" viewBox="0 0 16 16" fill="none" xmlns="http://www.w3.org/2000/svg" xmlns:xlink="http://www.w3.org/1999/xlink">
	<desc>
			Created with Pixso.
	</desc>
	<defs>
		<clipPath id="clip12_864">
			<rect id="instagram 2" width="16.000000" height="16.000000" fill="white" fill-opacity="0"/>
		</clipPath>
	</defs>
	<rect id="instagram 2" width="16.000000" height="16.000000" fill="#FFFFFF" fill-opacity="0"/>
	<g clip-path="url(#clip12_864)">
		<path id="Vector" d="M15.9843 4.70404C15.9468 3.85388 15.8093 3.26941 15.6124 2.763C15.4092 2.2254 15.0967 1.74414 14.6872 1.34399C14.287 0.937683 13.8026 0.621948 13.2712 0.421936C12.7619 0.225037 12.1805 0.0875244 11.3303 0.0500488C10.4738 0.00939941 10.2019 0 8.0296 0C5.85736 0 5.58545 0.00939941 4.73212 0.046875C3.88196 0.0843506 3.29749 0.221985 2.7912 0.418762C2.25348 0.621948 1.77222 0.934509 1.37207 1.34399C0.965759 1.74414 0.650146 2.22858 0.450012 2.75995C0.253113 3.26941 0.115601 3.85071 0.078125 4.70087C0.0374756 5.55737 0.0280762 5.82928 0.0280762 8.00159C0.0280762 10.1739 0.0374756 10.4457 0.0749512 11.2991C0.112427 12.1492 0.250061 12.7337 0.44696 13.2401C0.650146 13.7777 0.965759 14.259 1.37207 14.6591C1.77222 15.0654 2.25665 15.3812 2.78802 15.5812C3.29749 15.7781 3.87878 15.9156 4.72906 15.9531C5.58228 15.9907 5.85431 15.9999 8.02655 15.9999C10.1989 15.9999 10.4708 15.9907 11.3241 15.9531C12.1743 15.9156 12.7587 15.7781 13.265 15.5812C14.3403 15.1655 15.1904 14.3153 15.6062 13.2401C15.803 12.7307 15.9406 12.1492 15.9781 11.2991C16.0156 10.4457 16.025 10.1739 16.025 8.00159C16.025 5.82928 16.0218 5.55737 15.9843 4.70404ZM14.5435 11.2366C14.509 12.0179 14.3778 12.4399 14.2684 12.7213C13.9995 13.4183 13.4464 13.9715 12.7493 14.2404C12.468 14.3497 12.043 14.481 11.2646 14.5153C10.4207 14.5529 10.1676 14.5622 8.03284 14.5622C5.89801 14.5622 5.64172 14.5529 4.80084 14.5153C4.01947 14.481 3.59747 14.3497 3.31616 14.2404C2.9693 14.1121 2.65356 13.909 2.39734 13.6433C2.13165 13.3839 1.92847 13.0713 1.80029 12.7244C1.69086 12.4431 1.55963 12.0179 1.52533 11.2397C1.48773 10.3958 1.47845 10.1426 1.47845 8.00781C1.47845 5.87299 1.48773 5.6167 1.52533 4.77594C1.55963 3.99457 1.69086 3.57257 1.80029 3.29132C1.92847 2.94427 2.13165 2.62866 2.40051 2.37231C2.65979 2.10663 2.97235 1.90344 3.31934 1.77539C3.60065 1.66595 4.02582 1.53473 4.80402 1.50031C5.64795 1.46283 5.90118 1.45343 8.03589 1.45343C10.1738 1.45343 10.4269 1.46283 11.2678 1.50031C12.0492 1.53473 12.4712 1.66595 12.7525 1.77539C13.0994 1.90344 13.4151 2.10663 13.6713 2.37231C13.937 2.63171 14.1402 2.94427 14.2684 3.29132C14.3778 3.57257 14.509 3.99762 14.5435 4.77594C14.5809 5.61987 14.5903 5.87299 14.5903 8.00781C14.5903 10.1426 14.5809 10.3926 14.5435 11.2366Z" fill="#F4F4FD" fill-opacity="1.000000" fill-rule="nonzero"/>
		<path id="Vector" d="M8.0296 3.89136C5.7605 3.89136 3.91943 5.7323 3.91943 8.00153C3.91943 10.2708 5.7605 12.1117 8.0296 12.1117C10.2988 12.1117 12.1398 10.2708 12.1398 8.00153C12.1398 5.7323 10.2988 3.89136 8.0296 3.89136ZM8.0296 10.6677C6.5575 10.6677 5.36346 9.47375 5.36346 8.00153C5.36346 6.5293 6.5575 5.33539 8.0296 5.33539C9.50183 5.33539 10.6958 6.5293 10.6958 8.00153C10.6958 9.47375 9.50183 10.6677 8.0296 10.6677Z" fill="#F4F4FD" fill-opacity="1.000000" fill-rule="nonzero"/>
		<path id="Vector" d="M13.262 3.72894C13.262 4.25885 12.8323 4.68848 12.3023 4.68848C11.7724 4.68848 11.3428 4.25885 11.3428 3.72894C11.3428 3.19891 11.7724 2.76941 12.3023 2.76941C12.8323 2.76941 13.262 3.19891 13.262 3.72894Z" fill="#F4F4FD" fill-opacity="1.000000" fill-rule="nonzero"/>
	</g>
</svg>
