<svg width="16.000000" height="16.000000" viewBox="0 0 16 16" fill="none" xmlns="http://www.w3.org/2000/svg" xmlns:xlink="http://www.w3.org/1999/xlink">
	<desc>
			Created with Pixso.
	</desc>
	<defs>
		<clipPath id="clip12_880">
			<rect id="linkedin 1" width="16.000000" height="16.000000" fill="white" fill-opacity="0"/>
		</clipPath>
	</defs>
	<rect id="linkedin 1" width="16.000000" height="16.000000" fill="#FFFFFF" fill-opacity="0"/>
	<g clip-path="url(#clip12_880)">
		<path id="Vector" d="M15.996 16.0001L15.996 15.9995L16.0001 15.9995L16.0001 10.1314C16.0001 7.26074 15.382 5.04944 12.0261 5.04944C10.4127 5.04944 9.33002 5.93475 8.88806 6.77411L8.84137 6.77411L8.84137 5.31744L5.65936 5.31744L5.65936 15.9995L8.97272 15.9995L8.97272 10.7101C8.97272 9.31744 9.23669 7.97076 10.9614 7.97076C12.6607 7.97076 12.686 9.56012 12.686 10.7994L12.686 16.0001L15.996 16.0001Z" fill="#F4F4FD" fill-opacity="1.000000" fill-rule="nonzero"/>
		<path id="Vector" d="M0.264038 5.31799L3.58136 5.31799L3.58136 16L0.264038 16L0.264038 5.31799Z" fill="#F4F4FD" fill-opacity="1.000000" fill-rule="nonzero"/>
		<path id="Vector" d="M1.92133 0C0.860657 0 0 0.860657 0 1.92133C0 2.98199 0.860657 3.86066 1.92133 3.86066C2.98199 3.86066 3.84265 2.98199 3.84265 1.92133C3.84198 0.860657 2.98132 0 1.92133 0L1.92133 0Z" fill="#F4F4FD" fill-opacity="1.000000" fill-rule="nonzero"/>
	</g>
</svg>
