<svg width="16.000000" height="13.000000" viewBox="0 0 16 13" fill="none" xmlns="http://www.w3.org/2000/svg" xmlns:xlink="http://www.w3.org/1999/xlink">
	<desc>
			Created with Pixso.
	</desc>
	<defs/>
	<path id="Vector" d="M16 1.539C15.405 1.79999 14.771 1.97302 14.11 2.05701C14.79 1.651 15.309 1.013 15.553 0.244019C14.919 0.622009 14.219 0.888977 13.473 1.03802C12.871 0.396973 12.013 0 11.077 0C9.26099 0 7.79901 1.474 7.79901 3.28101C7.79901 3.54102 7.82098 3.79102 7.875 4.02899C5.14801 3.896 2.73499 2.58899 1.11401 0.598022C0.830994 1.08899 0.664978 1.651 0.664978 2.25598C0.664978 3.39203 1.25 4.39899 2.12201 4.98199C1.59497 4.97198 1.078 4.81897 0.640015 4.578C0.640015 4.58801 0.640015 4.60101 0.640015 4.61401C0.640015 6.20801 1.77698 7.53198 3.26801 7.83698C3.00098 7.90997 2.71002 7.94501 2.40802 7.94501C2.198 7.94501 1.98602 7.93298 1.78699 7.88898C2.21198 9.18799 3.41803 10.143 4.85199 10.174C3.73602 11.047 2.31897 11.573 0.784973 11.573C0.515991 11.573 0.257996 11.561 0 11.528C1.453 12.465 3.17499 13 5.03198 13C11.068 13 14.368 8 14.368 3.66602C14.368 3.521 14.363 3.38098 14.356 3.242C15.007 2.78003 15.554 2.203 16 1.539Z" fill="#F4F4FD" fill-opacity="1.000000" fill-rule="nonzero"/>
</svg>
