<svg width="64.000092" height="49.085571" viewBox="0 0 64.0001 49.0856" fill="none" xmlns="http://www.w3.org/2000/svg" xmlns:xlink="http://www.w3.org/1999/xlink">
	<desc>
			Created with Pixso.
	</desc>
	<defs/>
	<path id="Vector" d="M3.19833 49.0856L54.3715 49.0856C56.1378 49.0856 57.5699 47.6535 57.5699 45.8873L57.5699 41.6228C57.5699 39.8566 56.1378 38.4245 54.3715 38.4245L53.3054 38.4245L53.3054 11.8379L59.3611 6.10132C60.7666 6.79419 62.4678 6.37357 63.3876 5.10391C64.308 3.83478 64.1789 2.08728 63.0826 0.96701C61.9863 -0.153229 60.2424 -0.320312 58.953 0.571381C57.6641 1.46362 57.206 3.15494 57.8681 4.57556L53.3054 8.90088L53.3054 6.44122C53.3054 4.67499 51.8734 3.24292 50.1071 3.24292L7.46277 3.24292C5.6965 3.24292 4.26443 4.67499 4.26443 6.44122L4.26443 38.4245L3.19833 38.4245C1.43207 38.4245 0 39.8566 0 41.6228L0 45.8873C0 47.6535 1.43207 49.0856 3.19833 49.0856ZM60.7682 2.17682C61.3569 2.17682 61.8343 2.65414 61.8343 3.24292C61.8343 3.83167 61.3569 4.30902 60.7682 4.30902C60.1794 4.30902 59.7021 3.83167 59.7021 3.24292C59.7021 2.65414 60.1794 2.17682 60.7682 2.17682ZM6.39664 6.44122C6.39664 5.85248 6.87399 5.37512 7.46277 5.37512L50.1071 5.37512C50.6959 5.37512 51.1732 5.85248 51.1732 6.44122L51.1732 10.9186L49.041 12.9446L49.041 8.57346C49.041 7.98471 48.5636 7.50735 47.9749 7.50735L9.59497 7.50735C9.00623 7.50735 8.52887 7.98471 8.52887 8.57346L8.52887 35.2262C8.52887 35.8149 9.00623 36.2923 9.59497 36.2923L47.9749 36.2923C48.5636 36.2923 49.041 35.8149 49.041 35.2262L49.041 15.8774L51.1732 13.8571L51.1732 38.4245L6.39664 38.4245L6.39664 6.44122ZM15.9916 20.3007C14.5492 20.2965 13.2826 21.2574 12.899 22.6479C12.5153 24.0383 13.1093 25.513 14.3498 26.2491C15.5898 26.9852 17.1696 26.8004 18.2061 25.7972L21.912 27.6567C22.3425 27.8722 22.8646 27.7712 23.1847 27.4115L31.0624 18.549L38.8062 24.3517C39.2216 24.663 39.8015 24.6296 40.1784 24.273L46.9088 17.8977L46.9088 34.1601L10.6611 34.1601L10.6611 9.63956L46.9088 9.63956L46.9088 14.9602L39.3658 22.1034L31.5569 16.2491C31.1134 15.917 30.4893 15.9795 30.1207 16.3933L22.1348 25.3787L19.1494 23.8857C19.1712 23.7577 19.1848 23.6286 19.1899 23.499C19.1899 21.7327 17.7579 20.3007 15.9916 20.3007ZM17.0577 23.499C17.0577 24.0877 16.5804 24.5651 15.9916 24.5651C15.4029 24.5651 14.9255 24.0877 14.9255 23.499C14.9255 22.9102 15.4029 22.4329 15.9916 22.4329C16.5804 22.4329 17.0577 22.9102 17.0577 23.499ZM23.4544 40.5567L34.1155 40.5567L34.1155 41.6228C34.1155 42.2116 33.6381 42.6889 33.0493 42.6889L24.5205 42.6889C23.9317 42.6889 23.4544 42.2116 23.4544 41.6228L23.4544 40.5567ZM2.1322 41.6228C2.1322 41.0341 2.60956 40.5567 3.19833 40.5567L21.3222 40.5567L21.3222 41.6228C21.3222 43.3891 22.7542 44.8211 24.5205 44.8211L33.0493 44.8211C34.8156 44.8211 36.2477 43.3891 36.2477 41.6228L36.2477 40.5567L54.3715 40.5567C54.9603 40.5567 55.4376 41.0341 55.4376 41.6228L55.4376 45.8873C55.4376 46.476 54.9603 46.9534 54.3715 46.9534L3.19833 46.9534C2.60956 46.9534 2.1322 46.476 2.1322 45.8873L2.1322 41.6228Z" fill="#2E2F42" fill-opacity="1.000000" fill-rule="nonzero"/>
</svg>
